<svg width="45" height="45" viewBox="0 0 45 45" fill="none" xmlns="http://www.w3.org/2000/svg">
<rect width="44.595" height="45" rx="10" fill="#43B581"/>
<path d="M22 19.1666H10.6667C9.1019 19.1666 7.83337 20.4352 7.83337 22V33.3333C7.83337 34.8981 9.1019 36.1666 10.6667 36.1666H22C23.5648 36.1666 24.8334 34.8981 24.8334 33.3333V22C24.8334 20.4352 23.5648 19.1666 22 19.1666Z" stroke="white" stroke-width="1.25" stroke-linecap="round" stroke-linejoin="round"/>
<path d="M30.3866 24.8334L35.345 19.8751C35.8706 19.2921 36.1615 18.535 36.1615 17.7501C36.1615 16.9651 35.8706 16.208 35.345 15.6251L28.2616 8.65505C27.6787 8.12942 26.9216 7.8385 26.1366 7.8385C25.3517 7.8385 24.5946 8.12942 24.0116 8.65505L19.1666 13.5001" stroke="white" stroke-width="1.25" stroke-linecap="round" stroke-linejoin="round"/>
<path d="M13.5 30.5H13.5133" stroke="white" stroke-width="1.25" stroke-linecap="round" stroke-linejoin="round"/>
<path d="M19.1666 24.8334H19.1799" stroke="white" stroke-width="1.25" stroke-linecap="round" stroke-linejoin="round"/>
<path d="M26.25 13.5H26.2633" stroke="white" stroke-width="1.25" stroke-linecap="round" stroke-linejoin="round"/>
<path d="M30.5 17.75H30.5133" stroke="white" stroke-width="1.25" stroke-linecap="round" stroke-linejoin="round"/>
</svg>
