<svg width="156" height="154" viewBox="0 0 156 154" fill="none" xmlns="http://www.w3.org/2000/svg">
<path d="M78.8167 153.204H78.6387C53.128 153.14 28.2903 140.351 13.817 119.814C-0.84681 99.0033 -4.14917 70.5715 5.40226 47.4027C10.3527 35.4811 17.9317 24.8337 27.5727 16.2567C37.9435 7.1355 49.8002 1.52279 61.9239 0.0354085C63.1846 -0.118764 64.4546 0.234489 65.4551 1.01765C66.4556 1.80081 67.1045 2.94967 67.2585 4.21151C67.4126 5.47334 67.0593 6.7448 66.2771 7.74603C65.4943 8.74743 64.3468 9.39659 63.0861 9.55094C39.963 12.3985 21.876 32.4337 14.1854 51.0704C5.85321 71.3087 8.74919 96.143 21.5776 114.341C34.279 132.387 56.1702 143.631 78.6387 143.688H78.7976C99.5454 143.688 120.16 133.892 132.639 118.103C145.436 101.914 149.646 79.14 143.371 60.0836C136.957 40.6079 119.454 25.1238 99.8187 21.5134C92.2196 20.172 84.4245 20.4334 76.9321 22.2809C69.4403 24.1285 62.416 27.5216 56.3095 32.2429C55.8169 32.6286 55.2529 32.9132 54.6498 33.0808C54.0472 33.2483 53.4173 33.2953 52.7965 33.2191C52.1754 33.1431 51.5754 32.9452 51.0309 32.637C50.4863 32.3288 50.0077 31.9162 49.6224 31.423C49.2372 30.9297 48.9527 30.3652 48.7853 29.7618C48.6179 29.1585 48.571 28.528 48.647 27.9065C48.7231 27.2851 48.9208 26.6845 49.2286 26.1395C49.5365 25.5945 49.9488 25.1154 50.4416 24.7298C62.3376 15.3776 77.1624 10.551 92.2789 11.1085C107.395 11.666 121.825 17.5713 133.001 27.7744C141.94 35.6682 148.639 45.7825 152.422 57.0963C159.788 79.4511 155.07 105.099 140.114 124.021C125.889 142.01 102.41 153.204 78.8167 153.204ZM84.3674 129.05C98.5357 127.6 111.865 120.151 120.02 109.09C128.575 97.4844 131.311 82.0129 127.152 68.6646C126.8 67.5379 126.016 66.597 124.97 66.0489C123.925 65.5014 122.705 65.3918 121.579 65.7438C120.453 66.0963 119.513 66.8819 118.966 67.928C118.419 68.9741 118.31 70.1945 118.661 71.3217C121.995 81.9873 119.773 94.4203 112.87 103.771C106.176 112.84 95.1825 118.969 83.4654 120.163C72.1484 121.32 60.0819 117.965 50.3655 110.96C49.4083 110.3 48.2316 110.043 47.0872 110.242C45.9428 110.44 44.9215 111.08 44.2418 112.023C43.5623 112.965 43.2782 114.136 43.4505 115.286C43.6229 116.436 44.238 117.472 45.1642 118.174C55.0352 125.31 66.8813 129.194 79.0578 129.284C80.8308 129.296 82.6026 129.217 84.3674 129.05ZM34.9015 86.8755L34.912 86.8951C35.3531 87.1795 35.8787 87.3026 36.4002 87.2443C37.8665 87.106 39.2898 86.6739 40.5854 85.9727C41.5309 85.3936 42.5087 84.8689 43.5141 84.4014C43.9128 84.2162 44.3163 83.9182 44.7477 84.0026C44.9667 84.0456 45.1598 84.1737 45.2848 84.3584L45.4373 84.5425C45.5597 84.7098 45.6174 84.9152 45.7086 85.1015C46.2922 86.2925 46.8458 87.5565 47.4759 88.7824C48.1998 90.2 48.9175 91.7065 49.6478 93.1236C49.7558 93.4341 49.9078 93.7272 50.0987 93.9947C50.467 94.4715 50.8544 94.4775 51.8388 94.4649C52.0953 94.4649 52.3553 94.4317 52.5801 94.3086C52.6641 94.2623 52.7455 94.2105 52.8232 94.1533C52.9165 94.0868 53.0005 94.0095 53.0735 93.9228C53.3104 93.6433 53.3376 93.2554 53.3376 92.8887C53.5725 90.2572 53.8902 87.6317 54.1251 85.0002C54.2139 83.9389 54.2521 82.9157 54.3791 81.8985C54.4244 81.5106 54.4615 81.2109 54.5235 80.9815C54.6237 80.6132 54.9639 80.3746 55.3302 80.2694C55.873 80.1136 56.4538 80.167 57.015 80.1109C57.0662 80.1055 57.119 80.1 57.1734 80.0935C58.7803 79.9028 60.3486 79.6674 61.9239 79.4577C63.4987 79.2479 64.9021 78.9619 66.3691 78.6633C66.5977 78.6382 66.8241 78.5985 67.0473 78.544C67.2085 78.5048 67.3865 78.4764 67.5187 78.3773C67.6809 78.2552 67.7729 78.052 67.8339 77.858C67.8992 77.6516 67.9264 77.4342 67.9117 77.2157C67.8905 76.8948 67.7806 76.5864 67.5949 76.3238C67.4942 76.217 67.3734 76.1304 67.2395 76.0699C66.7185 75.7899 66.0964 75.5867 65.5754 75.3072C63.4606 74.3597 61.3077 73.3681 59.1548 72.3765C59.0862 72.3498 59.0182 72.321 58.9518 72.2894C58.764 72.2016 58.5664 72.1063 58.4374 71.9445C58.377 71.8726 58.3356 71.7865 58.3165 71.6944C58.279 71.5119 58.3296 71.3212 58.377 71.1414C58.4015 71.0482 58.4276 70.9556 58.4374 70.8701C59.0808 68.1988 59.8979 65.5727 60.882 63.0077C61.17 62.3926 61.2963 61.7143 61.2506 61.037C61.2609 60.7499 61.1738 60.4677 61.0029 60.2361C60.8603 60.0411 60.6333 59.9174 60.4123 59.8204C60.0563 59.6646 59.6703 59.5829 59.2789 59.5829C58.7651 59.5829 58.261 59.7235 57.8212 59.9882C57.586 60.1724 57.2621 60.3506 56.9763 60.5728C56.6002 60.8763 56.2458 61.2054 55.916 61.5584C54.0107 63.5095 52.169 65.5629 50.2448 67.6033C50.1495 67.6796 50.0479 67.8381 49.9019 67.9465L49.8066 68.0228C49.6734 68.1481 49.4974 68.2184 49.3143 68.2184C49.1314 68.2184 48.9554 68.1481 48.8222 68.0228L46.7264 66.2238C44.7386 64.5648 42.7065 62.9374 40.8076 61.2915C40.3808 60.9335 39.8816 60.672 39.3446 60.5249C38.8075 60.3783 38.2451 60.3489 37.6957 60.4394C37.5015 60.4508 37.3143 60.5173 37.156 60.63C37.0282 60.7396 36.9342 60.8834 36.8848 61.0441C36.7868 61.3628 36.8589 61.7143 36.9585 62.0324C36.9737 62.0804 36.9908 62.1283 37.0098 62.1746C37.4163 63.7704 37.8672 65.3532 38.28 66.9228C38.528 67.7787 38.7232 68.6494 38.8643 69.5293C39.0357 70.9213 39.4231 72.3003 39.728 73.6672C39.8046 74.1407 39.9368 74.6038 40.1217 75.0462C40.2026 75.3017 40.22 75.573 40.1724 75.8367C40.0778 76.3609 39.7241 76.7967 39.4251 77.2369C39.3205 77.3911 39.2119 77.5426 39.0993 77.6908C37.5561 79.82 36.559 82.2733 34.9459 84.3077C34.7664 84.5605 34.6831 84.8694 34.7108 85.1783C34.73 85.782 34.8379 86.31 34.9015 86.8755ZM69.2138 58.7787C68.7713 59.6461 68.719 60.8681 69.5829 61.3165C70.8812 62.021 72.3095 62.4536 73.7804 62.5882C74.887 62.6307 75.9899 62.7369 77.084 62.9053C77.5195 62.9728 78.0203 62.9494 78.3344 63.2588C78.4933 63.4158 78.5848 63.6293 78.588 63.8527V64.0946C78.588 64.2995 78.5358 64.5021 78.5064 64.7054C78.317 66.0168 78.0856 67.3783 77.9147 68.7344C77.7307 70.3236 77.4955 71.9701 77.3115 73.5588C77.2348 73.8775 77.1983 74.2044 77.2038 74.5313C77.2528 75.1088 77.5511 75.336 78.3159 75.8384C78.3703 75.8738 78.4024 75.9005 78.4574 75.9353C78.6169 76.0361 78.8091 76.1391 78.9963 76.1631C79.1242 76.1794 79.2532 76.1843 79.3817 76.1778C79.4982 76.1756 79.6131 76.1587 79.7236 76.1271C80.0757 76.0269 80.2946 75.7071 80.5314 75.4276C82.1889 73.3681 83.9101 71.3659 85.5677 69.3064C86.2024 68.4674 86.8376 67.6414 87.4729 66.8656C87.9742 66.281 88.254 65.9568 88.6095 65.9312C88.751 65.9405 88.8904 65.9623 89.0265 65.9966C89.6731 66.159 90.2039 66.6182 90.8005 66.9168C92.2419 67.654 93.6839 68.3279 95.1253 69.0013C96.5668 69.6753 97.8754 70.273 99.2406 70.8069C99.4485 70.9137 99.663 71.0068 99.8835 71.0853C100.037 71.1403 100.196 71.2253 100.358 71.2073C100.562 71.1845 100.756 71.0804 100.915 70.9518C101.083 70.8161 101.225 70.65 101.334 70.4615C101.494 70.182 101.574 69.8638 101.565 69.5418C101.54 69.3974 101.489 69.2596 101.413 69.1348C101.133 68.6074 100.727 68.0991 100.447 67.5712C99.215 65.6136 97.9766 63.5923 96.7322 61.571C96.6898 61.5083 96.649 61.4446 96.6103 61.3792C96.5042 61.2032 96.3871 61.0196 96.3762 60.8147C96.3643 60.7205 96.3768 60.6246 96.4127 60.5369C96.4829 60.3625 96.6424 60.241 96.7796 60.1125C96.8487 60.0482 96.9179 59.9833 96.9734 59.9185C98.9777 58.0732 101.099 56.3597 103.324 54.789C103.905 54.4372 104.386 53.9426 104.721 53.3522C104.891 53.1184 104.976 52.8338 104.963 52.545C104.963 52.3012 104.827 52.0722 104.696 51.867C104.487 51.5415 104.213 51.2609 103.89 51.0434C103.466 50.7569 102.972 50.5906 102.46 50.5619C102.156 50.5619 101.794 50.5619 101.432 50.5619C100.951 50.607 100.474 50.6835 100.003 50.7906C97.4845 51.3235 94.9713 51.9804 92.4063 52.5861C92.0906 52.6606 91.7771 52.7658 91.4548 52.7994C91.3786 52.7994 91.3029 52.8088 91.2267 52.8098C91.0835 52.8115 90.9426 52.7709 90.8212 52.6916C90.6682 52.5914 90.5588 52.4368 90.5147 52.259C90.2605 51.3692 90.0128 50.4791 89.7651 49.5958C89.0352 47.1104 88.2475 44.6314 87.5807 42.2096C87.4244 41.6743 87.155 41.1792 86.7897 40.7578C86.425 40.3365 85.9732 39.9991 85.4659 39.7688C85.2977 39.667 85.1033 39.6184 84.9068 39.629C84.7408 39.6503 84.584 39.7174 84.4539 39.8229L84.3951 39.8748C84.1943 40.0692 84.0783 40.3398 83.9858 40.604C83.927 40.772 83.8867 40.9464 83.8279 41.1145C83.3168 42.5807 82.8514 44.0418 82.3348 45.5086C82.0632 46.3568 81.7431 47.1888 81.3762 48.0002C80.7409 49.2715 80.3027 50.6191 79.8009 51.9285C79.5989 52.3617 79.4514 52.8188 79.3627 53.2887C79.2903 53.547 79.1547 53.7833 78.9685 53.9763C78.5989 54.3598 78.0617 54.5269 77.5674 54.7258C77.4035 54.7917 77.2381 54.8532 77.0704 54.9094C74.5996 55.8247 72.4217 57.3186 69.9449 58.0879C69.6537 58.1952 69.412 58.4055 69.265 58.679C69.2476 58.7123 69.2307 58.7455 69.2138 58.7787Z" fill="url(#paint0_linear_79_17)"/>
<defs>
<linearGradient id="paint0_linear_79_17" x1="-0.00218067" y1="76.6039" x2="155.857" y2="76.6039" gradientUnits="userSpaceOnUse">
<stop stop-color="#FFA9BE"/>
<stop offset="1" stop-color="#C359F5"/>
</linearGradient>
</defs>
</svg>
